<?xml version="1.0" encoding="UTF-8" standalone="no"?>
<!-- Created with Inkscape (http://www.inkscape.org/) -->

<svg
   xmlns:dc="http://purl.org/dc/elements/1.1/"
   xmlns:cc="http://creativecommons.org/ns#"
   xmlns:rdf="http://www.w3.org/1999/02/22-rdf-syntax-ns#"
   xmlns:svg="http://www.w3.org/2000/svg"
   xmlns="http://www.w3.org/2000/svg"
   xmlns:sodipodi="http://sodipodi.sourceforge.net/DTD/sodipodi-0.dtd"
   xmlns:inkscape="http://www.inkscape.org/namespaces/inkscape"
   width="115.75051"
   height="132.03847"
   viewBox="0 0 115.75051 132.03847"
   id="svg2"
   version="1.1"
   inkscape:version="0.91 r13725"
   sodipodi:docname="logo.svg">
  <defs
     id="defs4" />
  <sodipodi:namedview
     id="base"
     pagecolor="#ffffff"
     bordercolor="#666666"
     borderopacity="1.0"
     inkscape:pageopacity="0.0"
     inkscape:pageshadow="2"
     inkscape:zoom="5.7952423"
     inkscape:cx="41.176245"
     inkscape:cy="62.174584"
     inkscape:document-units="px"
     inkscape:current-layer="layer1"
     showgrid="false"
     inkscape:window-width="1863"
     inkscape:window-height="1155"
     inkscape:window-x="0"
     inkscape:window-y="0"
     inkscape:window-maximized="0"
     fit-margin-top="10"
     fit-margin-left="10"
     fit-margin-right="10"
     fit-margin-bottom="10"
     units="px" />
  <metadata
     id="metadata7">
    <rdf:RDF>
      <cc:Work
         rdf:about="">
        <dc:format>image/svg+xml</dc:format>
        <dc:type
           rdf:resource="http://purl.org/dc/dcmitype/StillImage" />
        <dc:title></dc:title>
      </cc:Work>
    </rdf:RDF>
  </metadata>
  <g
     inkscape:label="Layer 1"
     inkscape:groupmode="layer"
     id="layer1"
     transform="translate(-314.17199,-360.42806)">
    <path
       id="path4157"
       d="m 396.42268,371.59171 c -0.0121,-0.0219 -0.0321,-0.0394 -0.046,-0.0602 -0.0657,-0.0822 -0.1333,-0.1623 -0.20777,-0.23754 -0.0178,-0.0135 -0.0276,-0.0313 -0.0438,-0.0446 -0.0835,-0.084 -0.17521,-0.16345 -0.27156,-0.2361 -0.0243,-0.0151 -0.0452,-0.0301 -0.067,-0.0466 -0.0484,-0.0358 -0.0984,-0.0705 -0.1487,-0.10402 -0.0297,-0.0174 -0.0611,-0.0318 -0.0919,-0.0475 -0.0302,-0.0182 -0.0607,-0.0352 -0.0926,-0.0525 -0.0951,-0.0511 -0.19438,-0.0967 -0.29267,-0.13654 -0.0122,-0.004 -0.0215,-0.008 -0.0296,-0.0132 -0.11594,-0.0449 -0.23418,-0.0768 -0.35155,-0.10712 -0.0252,-0.005 -0.0468,-0.0101 -0.0731,-0.0135 -0.10339,-0.0222 -0.20687,-0.039 -0.30969,-0.0487 -0.0225,-0.002 -0.0441,-0.005 -0.0663,-0.007 -0.12107,-0.0102 -0.24424,-0.0109 -0.36625,-0.004 -0.008,0.004 -0.0157,-0.002 -0.0249,-10e-4 l -41.40442,0.38776 c -0.87394,0.0509 -2.19467,1.35829 -2.70078,2.07158 l -25.13026,35.87572 c -0.64115,0.90347 -0.70797,2.09459 -0.17132,3.06378 l 22.93593,41.42254 c 0.50748,0.91652 1.47133,1.48505 2.51913,1.48617 l 43.82293,0.0262 c 0.001,3.6e-4 0,0 0,0 0.11614,0.001 0.23186,-0.008 0.34822,-0.0213 0.0205,-10e-4 0.0383,-0.005 0.0572,-0.009 0.0911,-0.0134 0.18275,-0.0313 0.27477,-0.0526 0.0295,-0.006 0.0578,-0.0141 0.0856,-0.0231 0.082,-0.0221 0.16292,-0.05 0.24421,-0.0791 0.0243,-0.0135 0.0544,-0.0185 0.0813,-0.0291 0.10317,-0.0412 0.20355,-0.0894 0.30323,-0.14459 0.0989,-0.0547 0.19256,-0.1169 0.28266,-0.17982 0.0251,-0.0139 0.0459,-0.0357 0.0678,-0.0534 0.0678,-0.0534 0.13527,-0.10565 0.19582,-0.16456 0.0208,-0.0218 0.0443,-0.0425 0.0675,-0.0617 0.067,-0.0646 0.12833,-0.13347 0.18875,-0.20408 0.0127,-0.0173 0.0253,-0.0289 0.0392,-0.044 0.0708,-0.0901 0.14023,-0.18464 0.20283,-0.28384 0,0 -4.4e-4,-8.1e-4 0,0 l 23.23464,-37.15646 c 0.5543,-0.88821 0.58557,-2.00775 0.0781,-2.92427 l -22.93593,-41.42254 -0.004,-0.008 c -0.0601,-0.10859 0.21271,0.82489 0.13797,0.72439 z m 17.28281,43.0439 -19.74113,31.57553 -4.91914,-8.88401 c -0.77087,-1.3922 -2.52466,-1.89393 -3.91606,-1.1235 -1.39139,0.77042 -1.89518,2.5243 -1.12521,3.91488 l 4.91914,8.88402 -37.23625,-0.0247 -19.84929,-35.84804 c 3.28307,-1.13069 6.76281,-1.17381 9.97009,-0.25185 l 8.19923,2.8029 c -0.25177,1.54551 -0.50136,3.65522 -0.17454,4.95872 0.74318,2.9714 2.62188,5.35853 5.05584,6.82092 l 11.40504,-19.03139 c -2.4354,-1.45736 -5.42642,-1.98872 -8.399,-1.24383 -1.72362,0.43239 -3.88092,1.95935 -5.15869,3.05546 l -0.24852,0.45948 -9.15441,-3.13589 c -3.33985,-0.95867 -6.90385,-1.13465 -10.39134,-0.44772 l 21.65207,-30.62479 34.46394,-0.1606 -13.00578,20.42226 c -0.84339,1.34899 -0.43402,3.12665 0.91622,3.97041 0.91975,0.57495 2.03935,0.56808 2.92589,0.0772 0.41248,-0.22839 0.77571,-0.56292 1.04289,-0.99251 l 13.02444,-20.82806 8.32479,15.03467 -0.15235,0.0844 c 4.57767,8.26733 1.57662,18.71507 -6.69071,23.29274 -2.94162,1.62879 -6.15401,2.28095 -9.28191,2.09325 -0.14343,-1.0048 -0.46105,-2.00104 -0.98155,-2.94107 -1.14643,-2.07047 -3.02257,-3.47962 -5.12863,-4.08594 l -0.85767,2.98111 -5.78325,-1.65985 0,0 c -0.75589,-0.2178 -1.54518,0.21923 -1.7621,0.97675 -0.2169,0.75751 0.22013,1.5468 0.97638,1.76335 l 5.78083,1.66119 -1.44238,5.01909 -5.95287,-1.70993 0,0 c -0.75796,-0.21772 -1.54725,0.21932 -1.76335,0.97638 -0.21691,0.75751 0.22013,1.5468 0.97682,1.76416 l 5.95413,1.71029 -0.85767,2.98111 c 2.1093,0.60452 4.44646,0.40629 6.51694,-0.74015 1.35654,-0.75113 2.42158,-1.81837 3.1718,-3.05647 4.4297,0.42193 9.02548,-0.43186 13.20373,-2.74538 6.05098,-3.35047 9.97859,-9.05954 11.28782,-15.35171 l 4.20794,7.59959 z"
       inkscape:connector-curvature="0"
       style="fill:#4d4d4d"
       sodipodi:nodetypes="ccccccccccccccccccccsscccccccccccccccccccsccccccssscccccccccccccccccsccccscscccccccccccsccscsccc" />
    <flowRoot
       xml:space="preserve"
       id="flowRoot4166"
       style="font-style:normal;font-variant:normal;font-weight:500;font-stretch:normal;font-size:40px;line-height:125%;font-family:'.Lucida Grande UI';-inkscape-font-specification:'.Lucida Grande UI Medium';letter-spacing:0px;word-spacing:0px;fill:#4d4d4d;fill-opacity:1;stroke:none;stroke-width:1px;stroke-linecap:butt;stroke-linejoin:miter;stroke-opacity:1"
       transform="translate(104.65613,16.220202)"><flowRegion
         id="flowRegion4168"><rect
           id="rect4170"
           width="174.45345"
           height="133.73039"
           x="225.35727"
           y="436.51221"
           style="font-style:normal;font-variant:normal;font-weight:500;font-stretch:normal;font-family:'.Lucida Grande UI';-inkscape-font-specification:'.Lucida Grande UI Medium';fill:#4d4d4d" /></flowRegion><flowPara
         id="flowPara4172"
         style="font-style:normal;font-variant:normal;font-weight:500;font-stretch:normal;font-size:30px;font-family:Futura;-inkscape-font-specification:'Futura Medium';fill:#4d4d4d">R<flowSpan
   style="fill:#666666"
   id="flowSpan4193">API</flowSpan>S</flowPara></flowRoot>  </g>
</svg>
